<svg width="1631" height="319" viewBox="0 0 1631 319" fill="none" xmlns="http://www.w3.org/2000/svg">
<path d="M348.034 264.344C337.698 264.344 328.172 262.52 319.457 258.872C310.945 255.224 303.548 250.157 297.265 243.672C290.982 237.186 286.017 229.586 282.368 220.871C278.923 211.954 277.2 202.225 277.2 191.686C277.2 181.35 278.923 171.723 282.368 162.806C286.017 153.888 290.982 146.187 297.265 139.701C303.548 133.013 310.945 127.845 319.457 124.197C328.172 120.346 337.596 118.421 347.73 118.421C359.688 118.421 370.226 120.752 379.347 125.413C388.67 130.074 396.168 136.459 401.843 144.565L386.339 160.678L384.515 162.806L382.691 160.982C382.691 159.36 382.387 157.84 381.779 156.422C381.171 154.8 379.651 152.774 377.219 150.342C372.962 146.491 368.301 143.856 363.234 142.437C358.37 140.816 352.695 140.005 346.21 140.005C340.738 140.005 335.468 141.221 330.402 143.653C325.335 145.883 320.775 149.227 316.721 153.686C312.87 157.942 309.729 163.211 307.297 169.494C305.068 175.777 303.953 182.769 303.953 190.47C303.953 198.172 305.068 205.164 307.297 211.447C309.729 217.527 312.972 222.898 317.025 227.559C321.079 232.018 325.841 235.565 331.314 238.199C336.988 240.632 342.967 241.848 349.25 241.848C353.709 241.848 358.066 241.24 362.322 240.024C366.578 238.808 370.632 236.983 374.483 234.551C378.333 231.917 381.88 228.674 385.123 224.823L400.019 241.848C392.926 249.549 384.92 255.224 376.003 258.872C367.085 262.52 357.762 264.344 348.034 264.344ZM490.005 263.736C477.439 263.736 466.191 260.696 456.26 254.616C446.532 248.333 438.831 239.72 433.156 228.775C427.481 217.831 424.644 205.265 424.644 191.078C424.644 176.891 427.481 164.326 433.156 153.382C438.831 142.437 446.532 133.824 456.26 127.541C466.191 121.258 477.439 118.117 490.005 118.117C502.571 118.117 513.718 121.258 523.446 127.541C533.377 133.824 541.18 142.437 546.854 153.382C552.529 164.326 555.367 176.891 555.367 191.078C555.367 205.265 552.529 217.831 546.854 228.775C541.18 239.72 533.377 248.333 523.446 254.616C513.718 260.696 502.571 263.736 490.005 263.736ZM490.005 242.456C497.504 242.456 504.091 240.226 509.766 235.767C515.44 231.309 519.899 225.229 523.142 217.527C526.587 209.826 528.31 200.908 528.31 190.774C528.31 180.641 526.587 171.723 523.142 164.022C519.899 156.32 515.44 150.342 509.766 146.085C504.091 141.627 497.504 139.397 490.005 139.397C482.709 139.397 476.122 141.627 470.245 146.085C464.57 150.342 460.01 156.32 456.564 164.022C453.322 171.723 451.7 180.641 451.7 190.774C451.7 200.908 453.322 209.826 456.564 217.527C459.807 225.229 464.266 231.309 469.941 235.767C475.818 240.226 482.506 242.456 490.005 242.456ZM636.232 264.04C628.936 264.04 621.843 262.52 614.952 259.48C608.061 256.44 601.88 251.88 596.407 245.8C590.935 239.72 586.578 232.018 583.335 222.695C580.092 213.372 578.471 202.428 578.471 189.862C578.471 177.297 580.092 166.555 583.335 157.638C586.781 148.517 591.239 141.019 596.711 135.141C602.386 129.061 608.669 124.602 615.56 121.765C622.451 118.927 629.646 117.509 637.144 117.509C643.022 117.509 648.393 118.421 653.257 120.245C658.324 122.069 662.681 124.602 666.329 127.845C670.18 130.885 673.22 134.635 675.449 139.093V58.2274H700.074H703.114V60.6595C701.898 61.8755 701.087 63.1929 700.682 64.6116C700.479 66.0303 700.378 68.4623 700.378 71.9078L700.682 240.328C700.682 243.773 700.783 247.218 700.986 250.664C701.391 254.109 702.303 257.555 703.722 261H678.185C677.172 258.568 676.463 256.339 676.057 254.312C675.652 252.285 675.348 250.258 675.145 248.232C675.145 246.002 675.145 243.773 675.145 241.544C672.308 246.205 668.964 250.258 665.113 253.704C661.262 257.149 656.905 259.683 652.041 261.304C647.177 263.128 641.907 264.04 636.232 264.04ZM640.488 242.152C646.569 242.152 651.737 240.936 655.993 238.503C660.249 236.071 663.694 232.525 666.329 227.863C668.964 223.202 670.889 217.73 672.105 211.447C673.524 204.961 674.233 197.969 674.233 190.47C674.233 180.134 673.017 171.115 670.585 163.414C668.153 155.51 664.302 149.429 659.033 145.173C653.763 140.715 647.075 138.485 638.968 138.485C633.294 138.485 628.227 139.6 623.768 141.829C619.309 144.059 615.661 147.403 612.824 151.862C609.986 156.118 607.757 161.286 606.136 167.366C604.717 173.243 604.008 179.932 604.008 187.43C604.008 198.577 605.426 208.204 608.264 216.311C611.304 224.418 615.56 230.802 621.032 235.463C626.504 239.922 632.99 242.152 640.488 242.152ZM800.7 264.04C790.566 264.04 781.244 262.52 772.731 259.48C764.422 256.237 757.126 251.576 750.843 245.496C744.763 239.416 740.101 231.815 736.859 222.695C733.616 213.575 731.995 203.239 731.995 191.686C731.995 179.932 733.616 169.494 736.859 160.374C740.304 151.254 744.965 143.552 750.843 137.269C756.72 130.986 763.611 126.224 771.515 122.981C779.42 119.535 787.83 117.813 796.748 117.813C804.652 117.813 812.151 119.231 819.244 122.069C826.338 124.704 832.418 128.757 837.485 134.229C842.754 139.701 846.909 146.693 849.949 155.206C852.989 163.515 854.509 173.345 854.509 184.694C854.509 186.518 854.408 188.545 854.205 190.774C854.205 192.801 854.104 194.625 853.901 196.247H756.923C757.328 204.556 758.747 211.751 761.179 217.831C763.814 223.708 767.158 228.573 771.211 232.423C775.265 236.071 779.825 238.808 784.892 240.632C790.161 242.456 795.735 243.368 801.612 243.368C806.274 243.368 810.631 242.861 814.684 241.848C818.94 240.834 822.893 239.213 826.541 236.983C830.189 234.754 833.533 232.018 836.573 228.775L850.557 242.152C846.504 247.016 841.842 251.17 836.573 254.616C831.506 257.859 825.933 260.189 819.852 261.608C813.975 263.229 807.591 264.04 800.7 264.04ZM757.835 176.486H828.669C828.669 170.406 827.858 165.035 826.237 160.374C824.615 155.712 822.386 151.659 819.548 148.213C816.711 144.768 813.164 142.235 808.908 140.613C804.855 138.789 800.295 137.877 795.228 137.877C790.566 137.877 786.209 138.688 782.156 140.309C778.102 141.728 774.353 144.059 770.907 147.301C767.665 150.544 764.827 154.598 762.395 159.462C760.166 164.123 758.646 169.798 757.835 176.486ZM945.407 313.289C935.071 313.289 926.052 312.478 918.351 310.857C910.649 309.236 904.164 306.905 898.894 303.865C893.827 300.825 889.977 297.075 887.342 292.617C884.707 288.158 883.39 283.192 883.39 277.72C883.39 271.64 884.505 266.371 886.734 261.912C889.166 257.656 892.206 254.008 895.854 250.968C899.705 247.928 903.961 245.293 908.622 243.064L916.527 247.32C912.676 249.549 909.332 251.981 906.494 254.616C903.657 257.048 901.428 259.987 899.806 263.432C898.185 267.08 897.374 271.438 897.374 276.504C897.374 280.355 898.286 283.801 900.11 286.841C902.137 289.881 905.076 292.414 908.926 294.441C912.98 296.67 917.945 298.393 923.823 299.609C929.903 300.825 937.098 301.433 945.407 301.433C955.946 301.433 964.56 300.217 971.248 297.785C977.936 295.353 983.003 292.009 986.448 287.753C989.894 283.699 991.616 279.139 991.616 274.072C991.819 269.006 991.008 264.851 989.184 261.608C987.563 258.568 984.016 256.339 978.544 254.92C973.072 253.298 964.661 252.488 953.311 252.488C946.218 252.488 939.631 252.285 933.551 251.88C927.471 251.272 921.999 250.461 917.135 249.448C912.473 248.232 908.42 246.61 904.974 244.584C901.732 242.557 899.198 240.125 897.374 237.287C895.55 234.45 894.638 231.005 894.638 226.951C894.638 221.884 896.158 217.324 899.198 213.271C902.238 209.015 906.292 204.657 911.359 200.199L918.655 206.279C916.02 208.913 913.892 211.143 912.271 212.967C910.649 214.791 909.433 216.514 908.622 218.135C908.014 219.554 907.71 221.378 907.71 223.607C907.71 227.863 909.534 231.207 913.183 233.639C916.831 235.869 922.303 237.389 929.599 238.199C937.098 239.01 946.218 239.416 956.96 239.416C967.093 239.416 975.301 240.226 981.584 241.848C988.07 243.266 993.035 245.394 996.48 248.232C999.926 250.866 1002.26 254.211 1003.47 258.264C1004.89 262.317 1005.6 266.877 1005.6 271.944C1005.6 277.416 1004.38 282.584 1001.95 287.449C999.521 292.313 995.872 296.67 991.008 300.521C986.144 304.372 979.963 307.412 972.464 309.641C964.965 312.073 955.946 313.289 945.407 313.289ZM940.543 214.791C931.22 214.791 922.911 212.663 915.615 208.407C908.521 204.151 902.948 198.375 898.894 191.078C894.841 183.782 892.814 175.675 892.814 166.758C892.814 158.043 894.841 150.139 898.894 143.045C902.948 135.749 908.521 129.973 915.615 125.717C922.911 121.461 931.22 119.333 940.543 119.333C950.271 119.333 958.682 121.461 965.776 125.717C972.869 129.973 978.341 135.749 982.192 143.045C986.246 150.139 988.272 158.043 988.272 166.758C988.272 175.675 986.347 183.782 982.496 191.078C978.645 198.375 973.173 204.151 966.08 208.407C958.986 212.663 950.474 214.791 940.543 214.791ZM940.543 202.023C947.637 202.023 953.818 200.604 959.088 197.767C964.357 194.727 968.41 190.572 971.248 185.302C974.085 180.033 975.504 173.953 975.504 167.062C975.504 160.171 973.984 154.091 970.944 148.821C967.904 143.552 963.749 139.397 958.48 136.357C953.21 133.317 947.231 131.797 940.543 131.797C934.058 131.797 928.18 133.317 922.911 136.357C917.641 139.397 913.487 143.552 910.447 148.821C907.406 154.091 905.886 160.07 905.886 166.758C905.886 174.054 907.406 180.337 910.447 185.606C913.487 190.876 917.641 194.929 922.911 197.767C928.18 200.604 934.058 202.023 940.543 202.023ZM979.76 143.349L973.68 135.749C978.544 130.074 983.915 126.021 989.792 123.589C995.67 121.157 1002.76 120.245 1011.07 120.853L1012.59 132.709C1005.7 132.101 999.622 132.506 994.352 133.925C989.083 135.344 984.219 138.485 979.76 143.349ZM1103.49 264.04C1093.76 264.04 1084.95 262.419 1077.04 259.176C1069.14 255.933 1062.35 251.272 1056.67 245.192C1051 238.909 1046.54 231.41 1043.3 222.695C1040.26 213.778 1038.74 203.745 1038.74 192.598C1038.74 180.844 1040.26 170.507 1043.3 161.59C1046.54 152.47 1050.9 144.869 1056.37 138.789C1062.04 132.506 1068.53 127.845 1075.83 124.805C1083.12 121.562 1091.03 119.941 1099.54 119.941C1107.44 119.941 1114.74 121.258 1121.43 123.893C1128.32 126.528 1134.3 130.48 1139.36 135.749C1144.43 141.019 1148.38 147.707 1151.22 155.814C1154.06 163.92 1155.48 173.446 1155.48 184.39C1155.48 186.012 1155.48 187.43 1155.48 188.646C1155.48 189.66 1155.37 190.977 1155.17 192.598H1053.03C1053.23 202.529 1054.65 211.244 1057.28 218.743C1059.92 226.039 1063.46 232.119 1067.92 236.983C1072.38 241.848 1077.65 245.496 1083.73 247.928C1089.81 250.36 1096.5 251.576 1103.79 251.576C1109.67 251.576 1114.94 250.866 1119.6 249.448C1124.26 248.029 1128.52 246.002 1132.37 243.368C1136.22 240.53 1139.77 237.287 1143.01 233.639L1152.13 241.848C1148.28 246.509 1143.82 250.562 1138.76 254.008C1133.89 257.251 1128.52 259.683 1122.64 261.304C1116.77 263.128 1110.38 264.04 1103.49 264.04ZM1053.63 180.438H1140.58C1140.58 172.737 1139.57 165.846 1137.54 159.766C1135.51 153.686 1132.68 148.619 1129.03 144.565C1125.38 140.309 1121.02 137.168 1115.96 135.141C1110.89 132.912 1105.31 131.797 1099.23 131.797C1092.75 131.797 1086.87 132.912 1081.6 135.141C1076.33 137.371 1071.67 140.613 1067.62 144.869C1063.77 149.125 1060.63 154.294 1058.19 160.374C1055.96 166.251 1054.44 172.939 1053.63 180.438ZM1198.04 261V123.285H1212.63V152.47C1215.67 145.781 1219.62 140.107 1224.49 135.445C1229.55 130.581 1235.33 126.832 1241.81 124.197C1248.3 121.562 1255.09 120.245 1262.18 120.245C1269.68 120.245 1276.47 122.069 1282.55 125.717C1288.83 129.162 1293.9 135.04 1297.75 143.349C1301.6 151.659 1303.53 163.211 1303.53 178.006V261H1288.93V178.614C1288.93 167.265 1287.72 158.347 1285.29 151.862C1282.85 145.173 1279.31 140.411 1274.65 137.573C1269.99 134.736 1264.41 133.317 1257.93 133.317C1251.85 133.317 1246.07 134.635 1240.6 137.269C1235.33 139.701 1230.57 143.147 1226.31 147.605C1222.05 151.862 1218.71 156.928 1216.28 162.806C1213.85 168.683 1212.63 175.169 1212.63 182.262V261H1198.04ZM1357.94 261V248.536H1395.64V135.445H1359.77V123.285H1410.23V248.536H1444.89V261H1357.94ZM1401.72 88.9321C1398.68 88.9321 1395.95 87.8174 1393.51 85.5881C1391.28 83.3587 1390.17 80.6226 1390.17 77.3799C1390.17 73.9345 1391.28 71.0971 1393.51 68.8677C1395.74 66.6383 1398.48 65.5236 1401.72 65.5236C1404.96 65.5236 1407.7 66.7396 1409.93 69.1717C1412.36 71.4011 1413.58 74.1371 1413.58 77.3799C1413.58 80.4199 1412.36 83.156 1409.93 85.5881C1407.7 87.8174 1404.96 88.9321 1401.72 88.9321ZM1563.15 264.344C1553.22 264.344 1544.2 262.52 1536.09 258.872C1527.99 255.224 1520.99 250.157 1515.12 243.672C1509.44 237.186 1504.98 229.586 1501.74 220.871C1498.5 211.954 1496.88 202.225 1496.88 191.686C1496.88 181.35 1498.5 171.825 1501.74 163.11C1505.19 154.395 1509.85 146.896 1515.72 140.613C1521.8 134.128 1528.9 129.162 1537 125.717C1545.11 122.272 1553.93 120.549 1563.45 120.549C1575.41 120.549 1585.65 122.677 1594.16 126.933C1602.67 130.986 1609.76 137.067 1615.44 145.173L1606.32 153.99L1604.49 156.118L1602.97 154.598C1603.18 153.179 1602.87 151.862 1602.06 150.646C1601.45 149.227 1599.93 147.301 1597.5 144.869C1593.25 140.816 1588.38 137.877 1582.91 136.053C1577.44 134.229 1570.34 133.317 1561.63 133.317C1555.14 133.317 1548.86 134.635 1542.78 137.269C1536.9 139.904 1531.63 143.755 1526.97 148.821C1522.31 153.686 1518.66 159.664 1516.03 166.758C1513.39 173.649 1512.08 181.452 1512.08 190.166C1512.08 199.287 1513.29 207.596 1515.72 215.095C1518.36 222.391 1522.01 228.775 1526.67 234.247C1531.33 239.517 1536.9 243.672 1543.39 246.712C1549.87 249.549 1556.87 250.968 1564.37 250.968C1569.43 250.968 1574.4 250.258 1579.26 248.84C1584.13 247.218 1588.69 244.989 1592.94 242.152C1597.4 239.314 1601.35 235.97 1604.8 232.119L1613.31 242.456C1606.42 249.752 1598.72 255.224 1590.21 258.872C1581.9 262.52 1572.88 264.344 1563.15 264.344Z" fill="white"/>
<path d="M57.1432 260.378C45.3205 260.378 35.1398 257.587 26.6011 252.004C18.0625 246.421 11.4943 238.731 6.89659 228.933C2.29886 219.136 0 207.942 0 195.353C0 182.545 2.3536 171.243 7.0608 161.445C11.8227 151.593 18.4456 143.903 26.9295 138.374C35.4682 132.791 45.4299 130 56.8148 130C65.6818 130 73.6731 131.642 80.7886 134.926C82.5568 135.742 84.2456 136.639 85.8549 137.618C80.9388 142.112 76.4704 149.137 74.8508 152.088C73.6048 151.257 72.2726 150.538 70.8543 149.928C66.9402 148.246 62.3698 147.406 57.1432 147.406C49.5898 147.406 42.9669 149.376 37.2744 153.317C31.6367 157.203 27.2306 162.704 24.056 169.82C20.9361 176.88 19.3761 185.173 19.3761 194.697C19.3761 204.439 20.9087 212.923 23.9739 220.148C27.0938 227.373 31.4725 232.984 37.1102 236.979C42.8027 240.975 49.4803 242.973 57.1432 242.973C62.1788 242.973 66.7491 242.097 70.8543 240.345C72.7823 239.523 74.5714 238.531 76.2218 237.371C77.8656 240.058 82.5879 246.589 88.3266 251.216C86.2489 252.685 84.0099 254.015 81.6097 255.206C74.6036 258.654 66.4481 260.378 57.1432 260.378Z" fill="white"/>
<path d="M130.787 307.669C121.427 307.669 113.381 306.465 106.648 304.057C99.916 301.703 94.3057 298.583 89.8174 294.697C85.3839 290.866 81.8535 286.761 79.2262 282.382L94.6615 271.544C96.413 273.843 98.6298 276.47 101.312 279.426C103.994 282.437 107.661 285.036 112.313 287.226C117.021 289.47 123.178 290.592 130.787 290.592C140.967 290.592 149.369 288.129 155.992 283.203C162.615 278.277 165.926 270.559 165.926 260.05V234.434H164.284C162.861 236.733 160.836 239.579 158.209 242.973C155.636 246.312 151.914 249.295 147.043 251.922C142.226 254.494 135.713 255.781 127.502 255.781C117.322 255.781 108.181 253.372 100.08 248.556C92.0342 243.739 85.6576 236.733 80.9504 227.537C76.2979 218.342 73.9717 207.176 73.9717 194.04C73.9717 181.122 76.2432 169.874 80.7862 160.296C85.3291 150.662 91.6511 143.218 99.7518 137.964C107.853 132.655 117.212 130 127.831 130C136.041 130 142.555 131.368 147.371 134.105C152.243 136.787 155.965 139.852 158.537 143.301C161.164 146.694 163.19 149.486 164.613 151.675H166.583V131.642H185.303V261.364C185.303 272.201 182.84 281.013 177.913 287.801C173.042 294.642 166.474 299.651 158.209 302.825C149.999 306.055 140.858 307.669 130.787 307.669ZM130.13 238.375C137.902 238.375 144.47 236.596 149.834 233.038C155.198 229.481 159.276 224.363 162.068 217.685C164.859 211.008 166.255 203.016 166.255 193.711C166.255 184.625 164.886 176.607 162.15 169.655C159.413 162.704 155.363 157.258 149.999 153.317C144.635 149.376 138.012 147.406 130.13 147.406C121.92 147.406 115.078 149.486 109.604 153.645C104.185 157.805 100.108 163.388 97.3708 170.394C94.6888 177.4 93.3478 185.173 93.3478 193.711C93.3478 202.469 94.7162 210.214 97.453 216.946C100.244 223.624 104.35 228.878 109.768 232.71C115.242 236.487 122.029 238.375 130.13 238.375Z" fill="white"/>
</svg>
